<svg xmlns="http://www.w3.org/2000/svg" height="162.8" width="134.8"><path d="M67.4 0C45.644 0 27.9 17.744 27.9 39.5S45.644 79 67.4 79s39.5-17.744 39.5-39.5S89.156 0 67.4 0zm0 10a29.425 29.425 0 0 1 29.5 29.5A29.425 29.425 0 0 1 67.4 69a29.425 29.425 0 0 1-29.5-29.5A29.425 29.425 0 0 1 67.4 10zm0 80.4C30.205 90.4 0 120.605 0 157.8a5 5 0 0 0 5 5h124.8a5 5 0 0 0 5-5c0-37.195-30.204-67.4-67.4-67.4zm0 10c30.116 0 54.627 22.96 57.149 52.4H10.25c2.522-29.44 27.034-52.4 57.15-52.4z" style="line-height:normal;font-variant-ligatures:normal;font-variant-position:normal;font-variant-caps:normal;font-variant-numeric:normal;font-variant-alternates:normal;font-feature-settings:normal;text-indent:0;text-align:start;text-decoration-line:none;text-decoration-style:solid;text-decoration-color:#000;text-transform:none;text-orientation:mixed;white-space:normal;shape-padding:0;isolation:auto;mix-blend-mode:normal;solid-color:#000;solid-opacity:1" overflow="visible" font-weight="400" font-family="sans-serif"/></svg>