<svg xmlns="http://www.w3.org/2000/svg" width="255.11" height="289.322" viewBox="0 0 255.11 289.322" preserveAspectRatio="xMidYMid"><path d="M127.399 289.322L23.217 260.401 0 0h255.11l-23.242 260.36z" fill="#264de4"/><path d="M211.972 243.78l19.86-222.488H127.556v245.893z" fill="#2965f1"/><path d="M53.223 117.87l2.863 31.937h71.469V117.87zM47.472 53.229l2.903 31.937h77.18V53.23zM127.555 200.814l-.14.038-35.569-9.605-2.273-25.47h-32.06l4.474 50.145 65.42 18.161.148-.04v-33.229z" fill="#ebebeb"/><path d="M201.682 117.87l5.765-64.641h-80.003v31.937h45.003l-2.906 32.704h-42.097v31.937h39.327l-3.707 41.42-35.62 9.614v33.227l65.473-18.146.48-5.396 7.505-84.08z" fill="#fff"/></svg>