<?xml version="1.0" encoding="UTF-8" standalone="no"?>
<svg
   xmlns:dc="http://purl.org/dc/elements/1.1/"
   xmlns:cc="http://creativecommons.org/ns#"
   xmlns:rdf="http://www.w3.org/1999/02/22-rdf-syntax-ns#"
   xmlns:svg="http://www.w3.org/2000/svg"
   xmlns="http://www.w3.org/2000/svg"
   xmlns:sodipodi="http://sodipodi.sourceforge.net/DTD/sodipodi-0.dtd"
   xmlns:inkscape="http://www.inkscape.org/namespaces/inkscape"
   height="384"
   id="Layer_1"
   version="1.1"
   viewBox="0 0 288 384"
   width="288"
   xml:space="preserve"
   sodipodi:docname="document.svg"
   inkscape:version="0.92.3 (2405546, 2018-03-11)"><metadata
     id="metadata11"><rdf:RDF><cc:Work
         rdf:about=""><dc:format>image/svg+xml</dc:format><dc:type
           rdf:resource="http://purl.org/dc/dcmitype/StillImage" /><dc:title></dc:title></cc:Work></rdf:RDF></metadata><defs
     id="defs9" /><sodipodi:namedview
     pagecolor="#ffffff"
     bordercolor="#666666"
     borderopacity="1"
     objecttolerance="10"
     gridtolerance="10"
     guidetolerance="10"
     inkscape:pageopacity="0"
     inkscape:pageshadow="2"
     inkscape:window-width="3000"
     inkscape:window-height="1955"
     id="namedview7"
     showgrid="false"
     fit-margin-top="0"
     fit-margin-left="0"
     fit-margin-right="0"
     fit-margin-bottom="0"
     inkscape:zoom="0.4609375"
     inkscape:cx="-461.78814"
     inkscape:cy="192.4"
     inkscape:window-x="-13"
     inkscape:window-y="-13"
     inkscape:window-maximized="1"
     inkscape:current-layer="Layer_1" /><g
     id="g4"
     transform="translate(-112.5,-64.4)"><path
       d="m 398.6,169.2 c -0.9,-2.2 -2,-4.3 -3.5,-6.1 L 311.3,71.4 c -1.9,-2.1 -4.2,-3.6 -6.7,-4.9 -2.9,-1.5 -6.1,-2.1 -9.5,-2.1 H 135.2 c -12.4,0 -22.7,10.6 -22.7,23.9 v 335.2 c 0,13.4 10.3,24.9 22.7,24.9 h 243.1 c 12.4,0 22.2,-11.5 22.2,-24.9 V 179.4 c 0,-3.6 -0.5,-7.1 -1.9,-10.2 z m -238.1,9.4 c 0,-1.5 1.8,-2.1 3.4,-2.1 h 70.8 c 1.6,0 2.8,0.6 2.8,2.1 v 10.8 c 0,1.4 -1.1,3.1 -2.8,3.1 h -70.8 c -1.6,0 -3.4,-1.7 -3.4,-3.1 z m 0,128 c 0,-1.5 1.8,-2.1 3.4,-2.1 h 122.2 c 1.6,0 2.4,0.6 2.4,2.1 v 10.8 c 0,1.4 -0.7,3.1 -2.4,3.1 H 163.9 c -1.6,0 -3.4,-1.7 -3.4,-3.1 z m 160,74.8 c 0,1.4 -0.7,3.1 -2.4,3.1 H 163.9 c -1.6,0 -3.4,-1.7 -3.4,-3.1 v -10.8 c 0,-1.5 1.8,-2.1 3.4,-2.1 h 154.2 c 1.6,0 2.4,0.6 2.4,2.1 z m 32,-128 c 0,1.4 -0.7,3.1 -2.4,3.1 H 163.9 c -1.6,0 -3.4,-1.7 -3.4,-3.1 v -10.8 c 0,-1.5 1.8,-2.1 3.4,-2.1 h 186.2 c 1.6,0 2.4,0.6 2.4,2.1 z m -46.9,-75.9 c -5.6,0 -11.1,-5.2 -11.1,-11.3 v -66 l 71.2,77.3 z"
       id="path2"
       inkscape:connector-curvature="0" /></g></svg>