<svg xmlns="http://www.w3.org/2000/svg" width="43.438" height="42.366" viewBox="0 0 11.493 11.209"><path d="M5.746 0A5.746 5.746 0 0 0 3.93 11.2c.287.052.392-.125.392-.278 0-.136-.005-.497-.008-.977-1.598.347-1.935-.77-1.935-.77-.262-.664-.639-.84-.639-.84-.521-.357.04-.35.04-.35.577.04.88.592.88.592.513.878 1.345.625 1.673.478.052-.372.2-.625.364-.769-1.276-.145-2.617-.638-2.617-2.84 0-.627.224-1.14.591-1.542-.059-.145-.256-.73.056-1.52 0 0 .483-.155 1.58.589.46-.128.95-.192 1.44-.194.487.002.98.066 1.438.194 1.097-.744 1.579-.59 1.579-.59.313.792.116 1.376.057 1.521.368.402.59.915.59 1.542 0 2.208-1.343 2.694-2.623 2.836.206.177.39.528.39 1.064 0 .768-.007 1.388-.007 1.576 0 .154.103.333.395.277A5.749 5.749 0 0 0 5.746 0" fill-rule="evenodd"/></svg>