<svg xmlns="http://www.w3.org/2000/svg" width="255.887" height="317.253" viewBox="0 0 255.887 317.253" preserveAspectRatio="xMidYMid"><path d="M225.628 317.253H30.258C13.545 317.253 0 303.708 0 286.998V30.256C0 13.546 13.546 0 30.257 0h195.37c16.71 0 30.26 13.546 30.26 30.256v256.742c0 16.71-13.55 30.255-30.26 30.255z" fill="#6762a6"/><path d="M160.36 273.6V147.61s8.195-30.15-100.943 12.334c-.2.539-.2-116.504-.2-116.504l35.66-.22v74.991s99.846-39.325 99.846 29.824V273.6h-34.362zm20.32-184.994h-37.824c13.615-16.646 25.94-45.167 25.94-45.167h39.11s-6.696 18.587-27.225 45.167zM59.865 273.382v-71.748l35.878 35.877z" fill="#fff"/></svg>