<svg xmlns="http://www.w3.org/2000/svg" width="255.11" height="289.322" viewBox="0 0 255.11 289.322" preserveAspectRatio="xMidYMid"><path d="M255.11 0l-23.242 260.36-104.47 28.962-104.181-28.921L0 0z" fill="#e44d26"/><path d="M127.555 267.185l84.417-23.404 19.86-222.49H127.556z" fill="#f16529"/><path d="M82.375 85.166h45.18V53.23H47.472l.764 8.568 7.85 88.01h71.469V117.87H85.294zM89.573 165.776h-32.06l4.474 50.146 65.42 18.161.148-.04v-33.229l-.14.038-35.569-9.605-2.273-25.47z" fill="#ebebeb"/><path d="M127.444 149.807h39.327l-3.707 41.42-35.62 9.614v33.227l65.473-18.146.48-5.396 7.505-84.08.78-8.576h-74.238zM127.444 85.088v.078h77.144l.64-7.178 1.455-16.19.764-8.569h-80.003v31.86z" fill="#fff"/></svg>