<svg xmlns="http://www.w3.org/2000/svg" height="768" width="768"><path d="M384 0C171.923 0 0 171.923 0 384s171.923 384 384 384c25.953 0 51.303-2.582 75.812-7.49-9.879-4.725-10.957-40.174-1.188-60.385 10.875-22.5 45-79.5 11.25-98.625s-24.375-27.75-45-49.875-12.19-25.451-13.5-31.125c-4.5-19.5 19.875-48.75 21-51.75s1.125-14.25.75-17.625S417.75 438.75 414 438.375c-3.75-.375-5.625 6-10.875 6.375s-28.125-13.875-33-17.625-7.125-12.75-13.875-19.5-7.5-1.5-18-5.625-44.25-16.5-70.125-27-28.125-25.219-28.5-35.625c-.375-10.406-15.75-25.5-22.961-36.375-7.209-10.875-8.539-25.875-11.164-22.5s13.5 42.75 10.875 43.875-8.25-10.875-15.75-20.625 7.875-4.5-16.125-51.75 7.5-71.344 9-96c1.5-24.656 20.25 9 10.5-6.75s.75-48.75-6.75-60.75S147 102 147 102c1.125-11.625 37.5-31.5 63.75-49.875S253.031 48 274.125 54.75s22.5 4.5 15.375-2.25 3-10.125 19.5-7.5 21 22.5 46.125 20.625 2.625 4.875 6 11.25-3.75 5.625-20.25 16.875.375 11.25 29.625 32.625 20.25-14.25 17.25-30S409.125 93 409.125 93c18 12 14.674.66 27.799 4.785S485.625 132 485.625 132c-44.625 24.375-16.5 27-9 32.625s-15.375 16.5-15.375 16.5c-9.375-9.375-10.875.375-16.875 3.75s-.375 12-.375 12c-31.031 4.875-24 37.5-23.625 45.375s-19.875 19.875-25.125 31.125S408.75 309 399 310.5s-19.5-36.75-72-22.5c-15.828 4.297-51 22.5-32.25 59.625s49.875-10.5 60.375-5.25-3 28.875-.75 29.25 29.625 1.031 31.125 33 41.625 29.25 50.25 30 37.5-23.625 41.625-24.75S498 394.875 534 415.5s54.375 17.625 66.75 26.25 3.75 25.875 15.375 31.5 58.125-1.875 69.75 17.25-48 115.125-66.75 125.625S591.75 650.625 573 666s-45 34.406-69.75 49.125c-21.908 13.027-25.85 36.365-35.609 43.732C639.496 720.68 768 567.35 768 384 768 171.923 596.077 0 384 0zm90 360.375c-5.25 1.5-16.125 11.25-42.75-4.5s-45-12.75-47.25-15.375c0 0-2.25-6.375 9.375-7.5 23.871-2.311 54 22.125 60.75 22.5s10.125-6.75 22.125-2.883c12 3.863 3 6.258-2.25 7.758zM348.375 38.25c-2.615-1.902 2.166-4.092 5.016-7.875 1.645-2.186.425-5.815 2.484-7.875 5.625-5.625 33.375-13.5 27.949 1.875C378.4 39.75 352.5 41.25 348.375 38.25zM415.5 87c-9.375-.375-31.443-2.707-27.375-6.75 15.844-15.75-6-20.25-19.5-21.375S349.5 50.25 356.25 49.5s33.75.375 38.25 4.125 28.875 13.5 30.375 20.625 0 13.125-9.375 12.75zm81.375-2.625c-7.5 6-45.24-21.529-52.5-27.75-31.5-27-48.375-18-54.99-22.5-6.617-4.5-4.26-10.5 5.865-19.5s38.625 3 55.125 4.875 35.625 14.625 36 29.781c.375 15.155 18 29.094 10.5 35.094z"/></svg>