<svg xmlns="http://www.w3.org/2000/svg" width="63.636" height="142.114"><g fill="none" fill-rule="evenodd"><path d="M35.053 142.114l-3.783-1.292s.462-19.287-6.46-20.671c-4.614-5.352.739-227.013 17.349-.738 0 0-5.721 2.86-6.736 7.751-1.108 4.799-.37 14.95-.37 14.95z" fill="#fff"/><path d="M35.053 142.114l-3.783-1.292s.462-19.287-6.46-20.671c-4.614-5.352.739-227.013 17.349-.738 0 0-5.721 2.86-6.736 7.751-1.108 4.799-.37 14.95-.37 14.95z" fill="#a6a385"/><path d="M37.084 123.473s33.129-21.778 25.377-67.09c-7.474-32.943-25.1-43.74-27.038-47.893C33.3 5.537 31.27.37 31.27.37l1.385 91.635c0 .092-2.862 28.053 4.429 31.468" fill="#fff"/><path d="M37.084 123.473s33.129-21.778 25.377-67.09c-7.474-32.943-25.1-43.74-27.038-47.893C33.3 5.537 31.27.37 31.27.37l1.385 91.635c0 .092-2.862 28.053 4.429 31.468" fill="#499d4a"/><path d="M29.332 124.672S-1.767 103.447.08 66.074C1.832 28.7 23.795 10.336 28.039 7.014 30.81 4.06 30.902 2.952 31.087 0c1.937 4.153 1.569 62.106 1.845 68.934.83 26.3-1.477 50.756-3.599 55.738z" fill="#fff"/><path d="M29.332 124.672S-1.767 103.447.08 66.074C1.832 28.7 23.795 10.336 28.039 7.014 30.81 4.06 30.902 2.952 31.087 0c1.937 4.153 1.569 62.106 1.845 68.934.83 26.3-1.477 50.756-3.599 55.738z" fill="#58aa50"/></g></svg>